<svg xmlns="http://www.w3.org/2000/svg" width="31.06" height="23.31" viewBox="0 0 31.06 23.31"><defs><style>.a{fill:#fff;}</style></defs><path class="a" d="M627.36,346.99a6.678,6.678,0,0,0-.919-3.124h0L620,332.714a3.436,3.436,0,0,0-6.58,1.522l.09,2.186a1.184,1.184,0,0,0-.879.8l-.795.033-.8-.033a1.184,1.184,0,0,0-.879-.8l.09-2.186a3.436,3.436,0,0,0-6.58-1.522l-6.441,11.152h0a6.7,6.7,0,1,0,12.474,3.675l.258-6.282.589-.144a1.029,1.029,0,0,0,.781-1.08l.5-.021.5.021a1.029,1.029,0,0,0,.781,1.08l.589.144.258,6.282a6.7,6.7,0,1,0,13.393-.551Zm-19.548.473a4.809,4.809,0,1,1-4.607-5A4.808,4.808,0,0,1,607.812,347.463Zm13.049,4.607a4.809,4.809,0,1,1,4.608-5A4.808,4.808,0,0,1,620.861,352.07Z" transform="translate(-596.305 -330.658)"/></svg>