<svg xmlns="http://www.w3.org/2000/svg" width="325" height="128.16" viewBox="0 0 325 128.16"><defs><style>.a{fill:#2a2b2c;}.b{fill:#f37f08;}.c{fill:#d00014;}.d{fill:#cd000f;}.e{fill:#fff;}</style></defs><g transform="translate(-134.228 -357.002)"><rect class="a" width="5.823" height="20.903" transform="translate(237.944 369.078)"/><path class="a" d="M248.113,390.038h5.734V378.571l8.929,11.467h5.077v-20.9h-5.734v11.049l-8.6-11.049h-5.405Z" transform="translate(-0.524 -0.056)"/><path class="a" d="M276.764,390.038h5.793V374.211h6.271v-5.076H270.493v5.076h6.271Z" transform="translate(-0.626 -0.056)"/><path class="a" d="M291.463,390.038h16.962V385.11H297.2V381.8H307.23v-4.569H297.2v-3.165h11.079v-4.927H291.463Z" transform="translate(-0.723 -0.056)"/><path class="a" d="M311.473,390.038H327.39v-5.077H317.266V369.134h-5.793Z" transform="translate(-0.815 -0.056)"/><rect class="a" width="5.823" height="20.903" transform="translate(329.173 369.078)"/><path class="a" d="M350.42,390.454a14.133,14.133,0,0,0,9.078-3.225v-9.407h-9.616v4.24H354V384.6a5.908,5.908,0,0,1-3.345.866,5.521,5.521,0,0,1-5.674-5.793v-.06a5.491,5.491,0,0,1,5.345-5.734,7.375,7.375,0,0,1,5.047,1.971l3.4-4.091a12.192,12.192,0,0,0-8.481-3.046c-6.48,0-11.258,4.778-11.258,10.87v.06C339.043,385.974,343.911,390.454,350.42,390.454Z" transform="translate(-0.942 -0.054)"/><path class="a" d="M365.1,367.673h3.792l2.359-1.583,2.359,1.583H377.5l-3.673-4.449h-5.047Zm-2.27,22.337h16.962v-4.927H368.566v-3.315H378.6V377.2H368.566v-3.165h11.079v-4.927H362.833Z" transform="translate(-1.051 -0.029)"/><path class="a" d="M382.873,390.038h5.733V378.571l8.929,11.467h5.077v-20.9h-5.734v11.049l-8.6-11.049h-5.405Z" transform="translate(-1.143 -0.056)"/><path class="a" d="M416.483,390.454a10.541,10.541,0,0,0,9.257-4.718l-4.36-3.106a5.709,5.709,0,0,1-4.718,2.538c-2.926,0-4.987-2.449-4.987-5.584v-.06c0-3.046,2.06-5.525,4.987-5.525a5.6,5.6,0,0,1,4.569,2.449l4.36-3.374a10.235,10.235,0,0,0-8.869-4.36,10.739,10.739,0,0,0-11.019,10.87v.06A10.615,10.615,0,0,0,416.483,390.454Z" transform="translate(-1.248 -0.054)"/><rect class="a" width="5.823" height="20.903" transform="translate(427.091 369.078)"/><path class="a" d="M445.74,381.795l2.359-5.943,2.329,5.943Zm-9.287,8.242h6.092l1.493-3.733H452.1l1.523,3.733h6.211l-8.9-21.053h-5.584Z" transform="translate(-1.389 -0.055)"/><path class="a" d="M244.1,413.781V403.15h2.359c3.464,0,5.763,1.941,5.763,5.286v.06c0,3.374-2.3,5.286-5.763,5.286Zm-5.793,5.136h7.943c7.525,0,11.915-4.479,11.915-10.511v-.06c0-6.032-4.33-10.332-11.8-10.332H238.3Z" transform="translate(-0.478 -0.189)"/><path class="a" d="M262.6,418.918h16.962V413.99H268.337v-3.315H278.37v-4.569H268.337v-3.166h11.079v-4.927H262.6Z" transform="translate(-0.59 -0.189)"/><path class="a" d="M293.623,418.918H299.3V406.973l5.315,8.122h.119l5.345-8.182v12h5.763v-20.9h-6.122l-4.987,8.093-4.987-8.093h-6.122Z" transform="translate(-0.733 -0.189)"/><path class="a" d="M321.013,418.918h16.962V413.99H326.747v-3.315H336.78v-4.569H326.747v-3.166h11.079v-4.927H321.013Z" transform="translate(-0.859 -0.189)"/><path class="a" d="M348.166,408.048v-5.017h3.792c1.941,0,3.136.836,3.136,2.479v.06c0,1.523-1.135,2.479-3.106,2.479Zm-5.793,10.87h5.793v-6.331H350.7l4.211,6.331H361.6l-4.987-7.286a6.611,6.611,0,0,0,4.3-6.42v-.06a6.481,6.481,0,0,0-1.851-4.867c-1.4-1.433-3.613-2.27-6.809-2.27h-9.884Z" transform="translate(-0.957 -0.189)"/><path class="a" d="M375.353,419.334a10.541,10.541,0,0,0,9.257-4.718l-4.36-3.106a5.709,5.709,0,0,1-4.718,2.538c-2.926,0-4.987-2.449-4.987-5.584v-.06c0-3.046,2.06-5.524,4.987-5.524a5.6,5.6,0,0,1,4.569,2.449l4.36-3.374a10.235,10.235,0,0,0-8.869-4.36,10.739,10.739,0,0,0-11.019,10.87v.06A10.615,10.615,0,0,0,375.353,419.334Z" transform="translate(-1.059 -0.187)"/><path class="a" d="M395.97,410.675l2.359-5.943,2.329,5.943Zm-9.287,8.242h6.092l1.493-3.733h8.063l1.523,3.733h6.211l-8.9-21.053h-5.584Z" transform="translate(-1.161 -0.188)"/><path class="a" d="M419.356,413.781V403.15h2.359c3.464,0,5.763,1.941,5.763,5.286v.06c0,3.374-2.3,5.286-5.763,5.286Zm-5.793,5.136h7.943c7.525,0,11.915-4.479,11.915-10.511v-.06c0-6.032-4.33-10.332-11.8-10.332h-8.063Z" transform="translate(-1.284 -0.189)"/><path class="a" d="M448.431,414.108a5.427,5.427,0,0,1-5.345-5.644v-.06a5.327,5.327,0,0,1,5.286-5.584,5.432,5.432,0,0,1,5.375,5.644v.06A5.333,5.333,0,0,1,448.431,414.108Zm-.06,5.226a10.95,10.95,0,0,0,11.288-10.87v-.06a11.266,11.266,0,0,0-22.516.06v.06A10.85,10.85,0,0,0,448.371,419.334Z" transform="translate(-1.393 -0.187)"/><path class="a" d="M239.118,443.863V430.035h4.144c4.464,0,7.28,3.114,7.28,6.914v.046c0,3.823-2.816,6.868-7.28,6.868Zm-1.19,1.1h5.334c5.037,0,8.517-3.5,8.517-8.013V436.9c0-4.51-3.48-7.967-8.517-7.967h-5.334Z" transform="translate(-0.477 -0.331)"/><path class="a" d="M257.346,439.4l4.235-9.272,4.213,9.272Zm-3.778,5.563H254.8l2.038-4.487H266.3l2.038,4.487h1.3l-7.464-16.14h-1.145Z" transform="translate(-0.549 -0.33)"/><rect class="a" width="1.191" height="16.026" transform="translate(279.645 428.605)"/><path class="a" d="M286.527,444.962h1.145v-14.24l11.287,14.24h.893V428.936h-1.145v13.942l-11.058-13.942h-1.122Z" transform="translate(-0.7 -0.331)"/><path class="a" d="M305.957,443.863V430.035H310.1c4.464,0,7.28,3.114,7.28,6.914v.046c0,3.823-2.816,6.868-7.28,6.868Zm-1.191,1.1H310.1c5.037,0,8.517-3.5,8.517-8.013V436.9c0-4.51-3.48-7.967-8.517-7.967h-5.334Z" transform="translate(-0.784 -0.331)"/><path class="a" d="M328.658,427.544h1.03l2.45-2.06-1.351-.641Zm.481,17.651c3.892,0,6.571-2.45,6.571-7.051v-9.226h-1.19v9.364c0,3.869-2.083,5.838-5.334,5.838-3.388,0-5.426-2.175-5.426-5.953v-9.249h-1.19v9.364C322.568,442.768,325.292,445.2,329.139,445.2Z" transform="translate(-0.866 -0.312)"/><path class="a" d="M345.791,445.19c3.091,0,5.311-1.786,5.311-4.373v-.046c0-2.335-1.557-3.663-5.266-4.419-3.8-.778-4.67-1.809-4.67-3.5V432.8c0-1.671,1.557-3.022,3.915-3.022a6.9,6.9,0,0,1,4.785,1.809l.756-.939a7.989,7.989,0,0,0-5.495-1.946c-2.976,0-5.151,1.832-5.151,4.213v.046c0,2.427,1.557,3.732,5.4,4.51,3.64.733,4.533,1.717,4.533,3.411v.046c0,1.832-1.648,3.182-4.052,3.182a7.781,7.781,0,0,1-5.746-2.381l-.778.893A9.122,9.122,0,0,0,345.791,445.19Z" transform="translate(-0.943 -0.33)"/><path class="a" d="M359.25,444.962h1.191V430.035h5.586v-1.1H353.664v1.1h5.586Z" transform="translate(-1.009 -0.331)"/><path class="a" d="M370.978,437.247v-7.212h5.472c2.908,0,4.6,1.351,4.6,3.5v.046c0,2.312-1.992,3.663-4.67,3.663Zm-1.191,7.715h1.191v-6.639h5.243l5.105,6.639h1.511l-5.289-6.845c2.7-.366,4.693-1.9,4.693-4.579v-.046a4.225,4.225,0,0,0-1.213-2.976,6.313,6.313,0,0,0-4.51-1.58h-6.731Z" transform="translate(-1.083 -0.331)"/><rect class="a" width="1.191" height="16.026" transform="translate(385.485 428.605)"/><path class="a" d="M395.254,439.4l4.235-9.272L403.7,439.4Zm-3.778,5.563h1.236l2.038-4.487h9.455l2.038,4.487h1.3l-7.464-16.14H398.94Z" transform="translate(-1.183 -0.33)"/><path class="a" d="M416.8,444.961h11.859v-3.045h-6.983l2.61-2.015c2.839-2.2,4.213-3.526,4.213-6.2v-.046c0-3-2.2-4.945-5.518-4.945-2.862,0-4.4,1.168-5.975,3.32l2.473,1.992c1.191-1.465,2.038-2.152,3.274-2.152a1.966,1.966,0,0,1,2.152,2.083c0,1.328-.778,2.2-2.77,3.846l-5.334,4.373Z" transform="translate(-1.299 -0.33)"/><rect class="a" width="3.709" height="3.663" transform="translate(430.129 440.968)"/><path class="a" d="M444.642,442.053c-2.129,0-3.526-2.175-3.526-5.105V436.9c0-2.93,1.374-5.06,3.48-5.06s3.526,2.2,3.526,5.105v.046C448.122,439.9,446.771,442.053,444.642,442.053Zm-.046,3.182c4.281,0,7.143-3.64,7.143-8.288V436.9c0-4.648-2.862-8.242-7.1-8.242-4.258,0-7.143,3.64-7.143,8.288v.046C437.5,441.641,440.315,445.235,444.6,445.235Z" transform="translate(-1.394 -0.329)"/><path class="b" d="M222.015,404.8a1.2,1.2,0,1,1-1.2,1.2A1.2,1.2,0,0,1,222.015,404.8Zm-34.846,37.495a1.2,1.2,0,1,1,1.2-1.2A1.205,1.205,0,0,1,187.169,442.294Zm0-82.551a1.2,1.2,0,1,1-1.2,1.2A1.205,1.205,0,0,1,187.169,359.743Zm31.487,63.315a1.2,1.2,0,1,1-1.2,1.2A1.205,1.205,0,0,1,218.655,423.058ZM204.2,430.512a1.2,1.2,0,1,1-1.2,1.2A1.206,1.206,0,0,1,204.2,430.512Zm3.335-59.814a1.2,1.2,0,1,1-1.2,1.2A1.2,1.2,0,0,1,207.536,370.7Zm14.479,9.55a1.2,1.2,0,1,1-.955,1.934,1.766,1.766,0,0,0,0-1.461A1.2,1.2,0,0,1,222.015,380.249ZM203,392.445a1.2,1.2,0,1,1-1.2,1.2A1.206,1.206,0,0,1,203,392.445Zm22.348,0a1.2,1.2,0,1,1-1.2,1.2A1.206,1.206,0,0,1,225.349,392.445Zm-3.686,2.982c.056,0,.11,0,.164-.008a3.945,3.945,0,1,0,0-3.541c-.054,0-.108-.008-.164-.008h-9.679a1.776,1.776,0,0,0-1.611,1.024l-5.47,11.694-.01.025H188.948v-9.332h10.427l.038,0a3.945,3.945,0,1,0,0-3.261H188.948v-17.97h6.394v7.4a1.778,1.778,0,0,0,1.778,1.778H218.5a3.945,3.945,0,1,0,0-3.557H198.9v-5.626h5.135c.064,0,.126,0,.188-.01a3.945,3.945,0,1,0-.366-3.547H188.948v-5.784a1.782,1.782,0,0,0-.017-.233,3.946,3.946,0,1,0-3.523,0,1.624,1.624,0,0,0-.018.233v72.632a1.7,1.7,0,0,0,.016.227,3.945,3.945,0,1,0,3.526,0,1.889,1.889,0,0,0,.016-.227V433.5h11.7l.04,0a3.945,3.945,0,1,0,0-3.553l-.04,0h-11.7V417.278H202.4l5.643,8.008a1.779,1.779,0,0,0,1.454.755h5.638a3.946,3.946,0,1,0,0-3.556h-4.715l-5.644-8.009a1.779,1.779,0,0,0-1.453-.754H188.948v-5.549h29.116a1.786,1.786,0,0,0,.6-.1,3.945,3.945,0,1,0-.339-3.432,1.674,1.674,0,0,0-.256-.021H208.82l4.3-9.187Z" transform="translate(-0.225)"/><path class="c" d="M142.713,406a1.2,1.2,0,1,1-1.2-1.2A1.206,1.206,0,0,1,142.713,406Zm32.438,35.088a1.2,1.2,0,1,1,1.2,1.2A1.2,1.2,0,0,1,175.151,441.091Zm2.407-80.143a1.2,1.2,0,1,1-1.2-1.2A1.2,1.2,0,0,1,177.558,360.948Zm-31.487,63.314a1.2,1.2,0,1,1-1.2-1.2A1.2,1.2,0,0,1,146.071,424.261Zm14.455,7.456a1.2,1.2,0,1,1-1.2-1.2A1.2,1.2,0,0,1,160.527,431.717ZM157.192,371.9a1.2,1.2,0,1,1-1.2-1.2A1.206,1.206,0,0,1,157.192,371.9Zm-14.729,8.819a1.765,1.765,0,0,0,0,1.461,1.2,1.2,0,1,1,0-1.461Zm19.262,12.927a1.2,1.2,0,1,1-1.2-1.2A1.2,1.2,0,0,1,161.725,393.649Zm-22.348,0a1.2,1.2,0,1,1-1.2-1.2A1.2,1.2,0,0,1,139.377,393.649Zm11.03,1.779,4.3,9.187H145.46a1.674,1.674,0,0,0-.256.021,3.947,3.947,0,1,0-.339,3.432,1.79,1.79,0,0,0,.6.1h29.116v5.549H160.2a1.777,1.777,0,0,0-1.453.754l-5.644,8.009h-4.716a3.946,3.946,0,1,0,0,3.556h5.638a1.775,1.775,0,0,0,1.454-.755l5.644-8.008h13.455v12.661h-11.7l-.039,0a3.946,3.946,0,1,0,0,3.553l.039,0h11.7v3.842a1.7,1.7,0,0,0,.017.227,3.945,3.945,0,1,0,3.525,0,1.892,1.892,0,0,0,.016-.227V364.706a1.782,1.782,0,0,0-.017-.233,3.946,3.946,0,1,0-3.524,0,1.779,1.779,0,0,0-.017.233v5.784H159.668a3.947,3.947,0,1,0-.367,3.547c.063.006.125.01.189.01h5.134v5.626h-19.6a3.946,3.946,0,1,0,0,3.557H166.4a1.778,1.778,0,0,0,1.779-1.778v-7.4h6.394v17.97H164.11a3.947,3.947,0,1,0,0,3.261c.014,0,.026,0,.039,0h10.427v9.332H158.629l-.01-.025L153.151,392.9a1.779,1.779,0,0,0-1.612-1.024H141.86c-.056,0-.11,0-.165.008a3.946,3.946,0,1,0,0,3.541c.055,0,.109.008.165.008Z"/><rect class="d" width="57.649" height="16.094" transform="translate(334.598 469.069)"/><path class="e" d="M343.306,483.355h-3.17l2.424-11.447h8.1l-.461,2.22h-4.93l-.57,2.664h4.582l-.476,2.22h-4.583Zm6.453,0,2.425-11.447h3.171l-2.425,11.447Zm5.31,0,2.427-11.447h8.722l-.461,2.22h-5.548l-.509,2.362h5.106l-.477,2.221h-5.105l-.508,2.425h5.55l-.477,2.22Zm18.393-8.07a2.025,2.025,0,0,0,.048-.418.966.966,0,0,0-.286-.674,1.487,1.487,0,0,0-1.093-.3,1.812,1.812,0,0,0-1.023.309c-.313.206-.486.391-.524.554a1.925,1.925,0,0,0-.055.372.774.774,0,0,0,.508.762,8.871,8.871,0,0,0,1.283.427c.52.137,1.1.292,1.76.461a2.487,2.487,0,0,1,2.031,2.393,9.02,9.02,0,0,1-.23,1.5,3.329,3.329,0,0,1-1.864,2.014,7.611,7.611,0,0,1-3.773.911,6.528,6.528,0,0,1-3.155-.65,2.343,2.343,0,0,1-1.173-2.236,6.062,6.062,0,0,1,.095-1h3.171a2.215,2.215,0,0,0-.048.429,1.068,1.068,0,0,0,.429.919,1.952,1.952,0,0,0,1.189.318,2.584,2.584,0,0,0,1.2-.309q.593-.311.665-.666a3.494,3.494,0,0,0,.071-.437c0-.508-.587-.906-1.767-1.2a14.116,14.116,0,0,1-2.488-.785,2.285,2.285,0,0,1-1.031-.88,2.385,2.385,0,0,1-.31-1.227,2.47,2.47,0,0,1,.017-.341c.01-.081.031-.214.063-.405a3.953,3.953,0,0,1,2.037-2.664,7.8,7.8,0,0,1,3.607-.792,5.913,5.913,0,0,1,2.846.613,2.076,2.076,0,0,1,1.135,1.967,3.6,3.6,0,0,1-.16,1.035Zm3.695,8.07,2.426-11.447h5.263a5.892,5.892,0,0,1,2.967.6,2.171,2.171,0,0,1,1.013,2.03,10.128,10.128,0,0,1-.262,1.76,3.293,3.293,0,0,1-1.648,2.109,6.826,6.826,0,0,1-3.623.856H381.2l-.874,4.09Zm6.152-6.31a2.272,2.272,0,0,0,1.419-.4,1.5,1.5,0,0,0,.61-.825,3.288,3.288,0,0,0,.095-.6.964.964,0,0,0-.364-.807,1.841,1.841,0,0,0-1.142-.286h-1.633l-.617,2.918Z" transform="translate(-0.947 -0.527)"/><path class="e" d="M390.327,482.944h3.1v.424h-3.1Zm0-2.712h3.1v.425h-3.1Zm0-2.813h3.1v.425h-3.1Zm0-2.774h3.1v.424h-3.1Zm0-2.7h3.1v.425h-3.1Z" transform="translate(-1.177 -0.528)"/><rect class="d" width="60.374" height="16.094" transform="translate(398.853 469.069)"/><path class="e" d="M416.346,475.508c.667-2.89-1.889-3.845-4.646-3.845-3.579.044-5.958,2.111-6.78,5.958s.622,5.979,4.2,5.979c2.778,0,5.758-1,6.336-3.889h-3.335a2.354,2.354,0,0,1-2.534,1.666c-1.779,0-1.733-1.957-1.356-3.623.356-1.713,1.156-3.868,2.978-3.868,1.312,0,1.956.6,1.8,1.623Z" transform="translate(-1.243 -0.527)"/><path class="e" d="M419.713,483.379l2.468-11.471h-3.157l-2.49,11.471Z" transform="translate(-1.298 -0.528)"/><path class="e" d="M430.652,483.379l.467-2.224h-5.535l.511-2.446h5.112l.49-2.2h-5.113l.511-2.38h5.536l.489-2.223h-8.737l-2.468,11.471Z" transform="translate(-1.323 -0.528)"/><path class="e" d="M443.662,475.286c.8-2.778-1.444-3.623-3.824-3.623-2.4,0-4.935.756-5.646,3.467a2.321,2.321,0,0,0,1.134,2.8c2.246,1.088,4.668.755,4.334,2.311-.154.756-1.178,1.134-1.911,1.134-1.133,0-1.8-.578-1.556-1.668h-3.178c-.623,3.113,1.556,3.891,4.223,3.891,2.644,0,5.291-1.134,5.8-3.557.667-3.091-2.089-3.267-3.912-3.758-.777-.222-1.735-.511-1.556-1.333a1.63,1.63,0,0,1,1.578-1.067,1.506,1.506,0,0,1,1.157.377,1.05,1.05,0,0,1,.2,1.023Z" transform="translate(-1.373 -0.527)"/><path class="e" d="M447.493,483.378l.867-4.112h2.111c2.8,0,4.824-.889,5.424-3.667s-1.045-3.691-3.846-3.691h-5.267l-2.468,11.47Zm1.356-6.313.623-2.933h1.644c1.245.044,1.644.622,1.444,1.467-.177.843-.821,1.4-2.089,1.466Z" transform="translate(-1.426 -0.528)"/><path class="e" d="M457.4,482.69h3.313v.422H457.4Zm0-2.646h3.313v.4H457.4Zm0-2.756h3.313v.422H457.4Zm0-2.711h3.313v.4H457.4Zm0-2.647h3.313v.4H457.4Z" transform="translate(-1.486 -0.528)"/><path class="e" d="M400.075,482.69h3.313v.422h-3.313Zm0-2.646h3.313v.4h-3.313Zm0-2.756h3.313v.422h-3.313Zm0-2.711h3.313v.4h-3.313Zm0-2.647h3.313v.4h-3.313Z" transform="translate(-1.222 -0.528)"/><path class="e" d="M335.531,482.944h3.387v.424h-3.387Zm0-2.712h3.387v.425h-3.387Zm0-2.813h3.387v.425h-3.387Zm0-2.774h3.387v.424h-3.387Zm0-2.7h3.387v.425h-3.387Z" transform="translate(-0.925 -0.528)"/></g></svg>