<svg xmlns="http://www.w3.org/2000/svg" width="190" height="48.484" viewBox="0 0 190 48.484">
  <g id="senai" transform="translate(-2705.091 -65.758)">
    <rect id="Retângulo_62" data-name="Retângulo 62" width="189.997" height="48.484" transform="translate(2705.094 65.758)" fill="#e30613"/>
    <g id="Grupo_101" data-name="Grupo 101">
      <path id="Caminho_105" data-name="Caminho 105" d="M2705.091,105.965h10.2v1.278h-10.2Zm0-8.167h10.2v1.276h-10.2Zm0-8.473h10.2V90.6h-10.2Zm0-8.36h10.2v1.278h-10.2Zm0-8.142h10.2V74.1h-10.2Z" fill="#fff" fill-rule="evenodd"/>
      <path id="Caminho_106" data-name="Caminho 106" d="M2884.882,105.965h10.2v1.278h-10.2Zm0-8.167h10.2v1.276h-10.2Zm0-8.473h10.2V90.6h-10.2Zm0-8.36h10.2v1.278h-10.2Zm0-8.142h10.2V74.1h-10.2Z" fill="#fff" fill-rule="evenodd"/>
      <path id="Caminho_107" data-name="Caminho 107" d="M2751.38,82.828c2.338-8.332-4.445-10.869-11.579-10.869-7.231,0-14.892,2.25-17.015,10.438-.79,3.734.255,6.894,3.424,8.428,6.815,3.3,14.117,2.3,13.12,6.99-.487,2.3-3.551,3.447-5.763,3.447-3.447,0-5.458-1.771-4.723-5.027h-9.577c-1.851,9.385,4.74,11.74,12.786,11.74,8,0,15.911-3.456,17.459-10.735,1.979-9.337-6.32-9.911-11.8-11.4-2.4-.67-5.283-1.484-4.749-4.022.368-1.724,2.586-3.16,4.789-3.16a4.576,4.576,0,0,1,3.454,1.1,3.04,3.04,0,0,1,.6,3.064Zm27.7,24.421,1.428-6.705H2763.75l1.556-7.327h15.418l1.421-6.7h-15.419l1.516-7.137H2785l1.428-6.7h-26.335l-7.349,34.573Zm5.41,0h8.62l5.626-26.479h.1l6.1,26.479H2818.2l7.349-34.573h-8.618l-5.459,25.665-.112.1-6.113-25.762h-13.407Zm46.83,0,3.686-6.752h14.031l.861,6.752h10.822l-6.3-34.573h-11.684l-21,34.573Zm7.55-13.455,7.748-14.367h.143l1.35,14.367Zm35.065,13.455,7.349-34.573h-9.575l-7.351,34.573Z" fill="#fff" fill-rule="evenodd"/>
    </g>
  </g>
</svg>
